<svg width="241" height="1586" viewBox="0 0 241 1586" fill="none" xmlns="http://www.w3.org/2000/svg">
<g filter="url(#filter0_d_294_1347)">
<path d="M53.4999 1428L53.4999 1455.5L108.5 1455.5L108.5 1428L53.4999 1428ZM108.5 117C108.5 101.812 96.1878 89.5 81 89.5C65.8122 89.5 53.5 101.812 53.5 117L108.5 117ZM108.5 1428L108.5 117L53.5 117L53.4999 1428L108.5 1428Z" fill="url(#paint0_linear_294_1347)"/>
</g>
<g filter="url(#filter1_d_294_1347)">
<path d="M138.5 1428L138.5 1455.5L193.5 1455.5L193.5 1428L138.5 1428ZM193.5 28C193.5 12.8122 181.188 0.500001 166 0.5C150.812 0.499999 138.5 12.8122 138.5 28L193.5 28ZM193.5 1428L193.5 28L138.5 28L138.5 1428L193.5 1428Z" fill="url(#paint1_linear_294_1347)"/>
</g>
<defs>
<filter id="filter0_d_294_1347" x="0.5" y="89.5" width="155" height="1496" filterUnits="userSpaceOnUse" color-interpolation-filters="sRGB">
<feFlood flood-opacity="0" result="BackgroundImageFix"/>
<feColorMatrix in="SourceAlpha" type="matrix" values="0 0 0 0 0 0 0 0 0 0 0 0 0 0 0 0 0 0 127 0" result="hardAlpha"/>
<feOffset dx="-3" dy="80"/>
<feGaussianBlur stdDeviation="25"/>
<feComposite in2="hardAlpha" operator="out"/>
<feColorMatrix type="matrix" values="0 0 0 0 0 0 0 0 0 0 0 0 0 0 0 0 0 0 0.1 0"/>
<feBlend mode="normal" in2="BackgroundImageFix" result="effect1_dropShadow_294_1347"/>
<feBlend mode="normal" in="SourceGraphic" in2="effect1_dropShadow_294_1347" result="shape"/>
</filter>
<filter id="filter1_d_294_1347" x="85.5" y="0.5" width="155" height="1585" filterUnits="userSpaceOnUse" color-interpolation-filters="sRGB">
<feFlood flood-opacity="0" result="BackgroundImageFix"/>
<feColorMatrix in="SourceAlpha" type="matrix" values="0 0 0 0 0 0 0 0 0 0 0 0 0 0 0 0 0 0 127 0" result="hardAlpha"/>
<feOffset dx="-3" dy="80"/>
<feGaussianBlur stdDeviation="25"/>
<feComposite in2="hardAlpha" operator="out"/>
<feColorMatrix type="matrix" values="0 0 0 0 0 0 0 0 0 0 0 0 0 0 0 0 0 0 0.1 0"/>
<feBlend mode="normal" in2="BackgroundImageFix" result="effect1_dropShadow_294_1347"/>
<feBlend mode="normal" in="SourceGraphic" in2="effect1_dropShadow_294_1347" result="shape"/>
</filter>
<linearGradient id="paint0_linear_294_1347" x1="-1022.5" y1="-105.277" x2="-1022.5" y2="1205.72" gradientUnits="userSpaceOnUse">
<stop offset="0.14" stop-color="#1637C9"/>
<stop offset="0.98" stop-color="#549314"/>
</linearGradient>
<linearGradient id="paint1_linear_294_1347" x1="-937.5" y1="-209.366" x2="-937.5" y2="1190.63" gradientUnits="userSpaceOnUse">
<stop stop-color="#1637C9"/>
<stop offset="0.98" stop-color="#E883AC"/>
</linearGradient>
</defs>
</svg>
