<svg width="24" height="22" viewBox="0 0 24 22" fill="none" xmlns="http://www.w3.org/2000/svg">
<path d="M12.2667 0V7.07143C7.46667 7.07143 6.66667 10.2143 6.66667 11.2619V18.8571C7.46667 18.8571 7.46667 19.381 7.46667 20.1667C8.47101 20.17 8.26667 21.2143 8.26667 22H0C0 20.1667 0.266667 20.1667 1.06667 20.1667C1.06667 19.381 1.06667 18.8571 1.6 18.8571V6.28571H0.8L0 3.14286H4.26667V0H12.2667Z" fill="#420192"/>
<path d="M11.7333 0V7.07143C16.5333 7.07143 17.3333 10.2143 17.3333 11.2619V18.8571C16.5333 18.8571 16.5333 19.381 16.5333 20.1667C15.529 20.17 15.7333 21.2143 15.7333 22H24C24 20.1667 23.7333 20.1667 22.9333 20.1667C22.9333 19.381 22.9333 18.8571 22.4 18.8571V6.28571H23.2L24 3.14286H19.7333V0H11.7333Z" fill="#420192"/>
</svg>
