<svg width="232" height="76" viewBox="0 0 232 76" fill="none" xmlns="http://www.w3.org/2000/svg">
<path d="M55.9602 0H78.4443V5.91859H62.9921V13.3168H76.384V18.787H62.9921V32.0142H55.9602V0Z" fill="#220707"/>
<path d="M102.441 32.0142H96.3946V28.7858H96.2602C95.454 30.131 94.409 31.1025 93.125 31.7003C91.841 32.2981 90.5272 32.5971 89.1836 32.5971C87.4816 32.5971 86.0782 32.3729 84.9734 31.9245C83.8984 31.4761 83.0474 30.8484 82.4204 30.0413C81.7933 29.2043 81.3455 28.2029 81.0767 27.0372C80.8378 25.8415 80.7184 24.5263 80.7184 23.0914V8.83304H87.0785V21.9257C87.0785 23.8387 87.3771 25.2736 87.9742 26.2301C88.5714 27.1567 89.6314 27.6201 91.1543 27.6201C92.8861 27.6201 94.1402 27.1119 94.9166 26.0956C95.6929 25.0494 96.0811 23.3455 96.0811 20.9841V8.83304H102.441V32.0142Z" fill="#220707"/>
<path d="M114.211 8.83304H118.869V13.0926H114.211V24.5711C114.211 25.6472 114.39 26.3646 114.748 26.7233C115.106 27.082 115.823 27.2614 116.898 27.2614C117.256 27.2614 117.6 27.2464 117.928 27.2165C118.256 27.1866 118.57 27.1418 118.869 27.082V32.0142C118.331 32.1038 117.734 32.1636 117.077 32.1935C116.42 32.2234 115.778 32.2383 115.151 32.2383C114.166 32.2383 113.225 32.1636 112.329 32.0142C111.463 31.8946 110.687 31.6405 110 31.2519C109.343 30.8633 108.821 30.3103 108.433 29.5929C108.045 28.8755 107.85 27.9339 107.85 26.7681V13.0926H103.999V8.83304H107.85V1.88319H114.211V8.83304Z" fill="#220707"/>
<path d="M120.506 15.9622C120.596 14.4677 120.969 13.2271 121.626 12.2407C122.283 11.2543 123.119 10.4621 124.134 9.86431C125.149 9.26647 126.284 8.84799 127.538 8.60885C128.822 8.33982 130.106 8.20531 131.39 8.20531C132.554 8.20531 133.734 8.29499 134.928 8.47434C136.123 8.6238 137.213 8.93766 138.198 9.41593C139.183 9.8942 139.989 10.5668 140.617 11.4336C141.244 12.2706 141.557 13.3915 141.557 14.7965V26.8578C141.557 27.904 141.617 28.9054 141.736 29.8619C141.856 30.8185 142.065 31.5359 142.363 32.0142H135.914C135.794 31.6555 135.69 31.2968 135.6 30.9381C135.54 30.5495 135.496 30.1609 135.466 29.7723C134.451 30.8185 133.256 31.5508 131.883 31.9693C130.509 32.3878 129.106 32.5971 127.672 32.5971C126.568 32.5971 125.538 32.4625 124.582 32.1935C123.627 31.9245 122.79 31.506 122.074 30.9381C121.357 30.3701 120.79 29.6527 120.372 28.7858C119.984 27.919 119.79 26.8877 119.79 25.692C119.79 24.3768 120.014 23.3007 120.461 22.4637C120.939 21.5969 121.536 20.9093 122.253 20.4012C122.999 19.893 123.836 19.5194 124.761 19.2802C125.717 19.0112 126.672 18.802 127.628 18.6525C128.583 18.503 129.524 18.3835 130.449 18.2938C131.375 18.2041 132.196 18.0696 132.913 17.8903C133.629 17.7109 134.197 17.4568 134.615 17.128C135.033 16.7693 135.227 16.2612 135.197 15.6035C135.197 14.916 135.078 14.378 134.839 13.9894C134.63 13.5709 134.331 13.257 133.943 13.0478C133.585 12.8087 133.152 12.6592 132.644 12.5994C132.166 12.5097 131.644 12.4649 131.076 12.4649C129.822 12.4649 128.837 12.7339 128.12 13.272C127.404 13.81 126.986 14.7068 126.866 15.9622H120.506ZM135.197 20.6702C134.928 20.9093 134.585 21.1036 134.167 21.2531C133.779 21.3727 133.346 21.4773 132.868 21.567C132.42 21.6566 131.942 21.7314 131.435 21.7912C130.927 21.8509 130.42 21.9257 129.912 22.0153C129.434 22.105 128.956 22.2246 128.479 22.374C128.031 22.5235 127.628 22.7327 127.269 23.0018C126.941 23.2409 126.672 23.5548 126.463 23.9434C126.254 24.332 126.15 24.8252 126.15 25.423C126.15 25.991 126.254 26.4692 126.463 26.8578C126.672 27.2464 126.956 27.5603 127.314 27.7994C127.672 28.0087 128.09 28.1581 128.568 28.2478C129.046 28.3375 129.539 28.3823 130.046 28.3823C131.3 28.3823 132.271 28.1731 132.958 27.7546C133.644 27.3361 134.152 26.8429 134.48 26.2749C134.809 25.6771 135.003 25.0793 135.063 24.4814C135.152 23.8836 135.197 23.4053 135.197 23.0466V20.6702Z" fill="#220707"/>
<path d="M145.374 8.83304H151.42V13.1375H151.51C151.809 12.4201 152.212 11.7624 152.719 11.1646C153.227 10.5369 153.809 10.0138 154.466 9.59528C155.123 9.1469 155.825 8.80315 156.571 8.56401C157.318 8.32488 158.094 8.20531 158.9 8.20531C159.318 8.20531 159.781 8.28004 160.289 8.4295V14.3481C159.99 14.2883 159.632 14.2435 159.214 14.2136C158.796 14.1538 158.393 14.1239 158.005 14.1239C156.84 14.1239 155.855 14.3182 155.048 14.7068C154.242 15.0954 153.585 15.6334 153.078 16.3209C152.6 16.9786 152.257 17.7558 152.048 18.6525C151.839 19.5493 151.734 20.5207 151.734 21.567V32.0142H145.374V8.83304Z" fill="#220707"/>
<path d="M176.641 16.9935C176.223 14.3331 174.655 13.0029 171.938 13.0029C170.923 13.0029 170.072 13.2421 169.385 13.7204C168.698 14.1687 168.131 14.7666 167.683 15.5139C167.265 16.2313 166.967 17.0383 166.787 17.9351C166.608 18.802 166.519 19.6688 166.519 20.5357C166.519 21.3727 166.608 22.2246 166.787 23.0914C166.967 23.9583 167.25 24.7504 167.638 25.4678C168.056 26.1554 168.609 26.7233 169.296 27.1717C169.982 27.6201 170.818 27.8442 171.804 27.8442C173.327 27.8442 174.491 27.4258 175.297 26.5888C176.133 25.7219 176.656 24.5711 176.865 23.1363H183.001C182.583 26.2151 181.389 28.5617 179.418 30.1758C177.447 31.79 174.924 32.5971 171.849 32.5971C170.117 32.5971 168.519 32.3131 167.056 31.7451C165.623 31.1473 164.399 30.3253 163.383 29.2791C162.368 28.2328 161.577 26.9923 161.01 25.5575C160.442 24.0928 160.159 22.4936 160.159 20.7599C160.159 18.9664 160.412 17.3074 160.92 15.7829C161.457 14.2285 162.234 12.8983 163.249 11.7923C164.264 10.6564 165.503 9.77463 166.967 9.1469C168.43 8.51917 170.102 8.20531 171.983 8.20531C173.356 8.20531 174.67 8.38466 175.924 8.74336C177.208 9.10206 178.343 9.65506 179.328 10.4024C180.344 11.1198 181.165 12.0315 181.792 13.1375C182.419 14.2136 182.777 15.4989 182.867 16.9935H176.641Z" fill="#220707"/>
<path d="M185.474 0H191.834V12.0614H191.969C192.775 10.7162 193.805 9.74474 195.059 9.1469C196.313 8.51917 197.537 8.20531 198.732 8.20531C200.434 8.20531 201.822 8.44444 202.897 8.92271C204.002 9.37109 204.868 10.0138 205.495 10.8507C206.122 11.6578 206.555 12.6592 206.794 13.8549C207.063 15.0206 207.197 16.3209 207.197 17.7558V32.0142H200.837V18.9215C200.837 17.0085 200.538 15.5886 199.941 14.6619C199.344 13.7054 198.284 13.2271 196.761 13.2271C195.029 13.2271 193.775 13.7502 192.999 14.7965C192.222 15.8128 191.834 17.5017 191.834 19.8631V32.0142H185.474V0Z" fill="#220707"/>
<path d="M222.326 34.8838C221.639 36.767 220.683 38.1121 219.459 38.9192C218.235 39.7263 216.533 40.1298 214.353 40.1298C213.696 40.1298 213.039 40.0999 212.382 40.0401C211.755 40.0102 211.113 39.9654 210.456 39.9056V34.6596C211.054 34.7194 211.666 34.7792 212.293 34.8389C212.92 34.8987 213.547 34.9137 214.174 34.8838C215.01 34.7941 215.622 34.4653 216.01 33.8973C216.428 33.3294 216.637 32.7017 216.637 32.0142C216.637 31.506 216.548 31.0277 216.369 30.5794L208.262 8.83304H215.025L220.265 24.7056H220.355L225.416 8.83304H232L222.326 34.8838Z" fill="#220707"/>
<path d="M0 35.8702H23.9174V41.7888H7.03189V48.649H22.5289V54.1192H7.03189V61.9658H24.2757V67.8844H0V35.8702Z" fill="#220707"/>
<path d="M33.1636 55.6885L25.5494 44.7032H32.8052L36.881 50.7563L40.9121 44.7032H47.944L40.3298 55.554L48.8845 67.8844H41.6287L36.7915 60.5758L31.9542 67.8844H24.8328L33.1636 55.6885Z" fill="#220707"/>
<path d="M61.8783 63.7145C62.9234 63.7145 63.7893 63.5052 64.476 63.0867C65.1927 62.6682 65.76 62.1302 66.178 61.4726C66.6259 60.7851 66.9395 59.9929 67.1186 59.0962C67.2978 58.1994 67.3873 57.2877 67.3873 56.3611C67.3873 55.4344 67.2828 54.5227 67.0738 53.626C66.8947 52.7292 66.5811 51.9371 66.1332 51.2496C65.6854 50.5322 65.1031 49.9642 64.3865 49.5457C63.6997 49.0973 62.8487 48.8732 61.8335 48.8732C60.7884 48.8732 59.9076 49.0973 59.1909 49.5457C58.5042 49.9642 57.9368 50.5172 57.4889 51.2047C57.0709 51.8922 56.7723 52.6844 56.5932 53.5811C56.414 54.4779 56.3244 55.4045 56.3244 56.3611C56.3244 57.2877 56.414 58.1994 56.5932 59.0962C56.8022 59.9929 57.1157 60.7851 57.5337 61.4726C57.9816 62.1302 58.5639 62.6682 59.2805 63.0867C59.9971 63.5052 60.8631 63.7145 61.8783 63.7145ZM50.1883 44.7032H56.2348V47.6625H56.3244C57.1008 46.4071 58.0861 45.4954 59.2805 44.9274C60.4749 44.3595 61.7887 44.0755 63.222 44.0755C65.0434 44.0755 66.611 44.4193 67.9248 45.1068C69.2386 45.7943 70.3285 46.706 71.1944 47.8419C72.0603 48.9778 72.7023 50.308 73.1204 51.8324C73.5384 53.327 73.7474 54.8964 73.7474 56.5404C73.7474 58.0948 73.5384 59.5894 73.1204 61.0242C72.7023 62.459 72.0603 63.7294 71.1944 64.8354C70.3584 65.9414 69.2983 66.8232 68.0144 67.4808C66.7603 68.1384 65.2823 68.4673 63.5803 68.4673C62.147 68.4673 60.8183 68.1833 59.594 67.6153C58.3997 67.0175 57.4143 66.1506 56.638 65.0147H56.5484V76H50.1883V44.7032Z" fill="#220707"/>
<path d="M92.0361 53.8053C91.7375 52.1911 91.2 50.9656 90.4236 50.1286C89.6772 49.2916 88.5276 48.8732 86.9749 48.8732C85.9597 48.8732 85.1087 49.0525 84.4219 49.4112C83.765 49.74 83.2275 50.1585 82.8095 50.6667C82.4213 51.1748 82.1377 51.7129 81.9585 52.2808C81.8092 52.8488 81.7196 53.3569 81.6898 53.8053H92.0361ZM81.6898 57.8407C81.7794 59.9032 82.3019 61.3978 83.2574 62.3245C84.2129 63.2511 85.5864 63.7145 87.378 63.7145C88.662 63.7145 89.7667 63.4006 90.6924 62.7729C91.618 62.1152 92.1854 61.4277 92.3944 60.7103H97.993C97.0972 63.4903 95.7237 65.4781 93.8724 66.6737C92.0211 67.8694 89.7817 68.4673 87.154 68.4673C85.3326 68.4673 83.6903 68.1833 82.2272 67.6153C80.7641 67.0175 79.525 66.1805 78.5097 65.1044C77.4945 64.0283 76.7033 62.743 76.1359 61.2484C75.5985 59.7538 75.3297 58.1097 75.3297 56.3162C75.3297 54.5825 75.6134 52.9683 76.1807 51.4737C76.748 49.9792 77.5542 48.6938 78.5993 47.6177C79.6444 46.5117 80.8836 45.6448 82.3168 45.0171C83.7799 44.3894 85.3923 44.0755 87.154 44.0755C89.1248 44.0755 90.8417 44.4641 92.3048 45.2413C93.7679 45.9886 94.9623 47.0049 95.8879 48.2903C96.8434 49.5756 97.5302 51.0403 97.9482 52.6844C98.3663 54.3284 98.5156 56.0472 98.3961 57.8407H81.6898Z" fill="#220707"/>
<path d="M101.048 44.7032H107.095V49.0077H107.185C107.483 48.2903 107.886 47.6326 108.394 47.0348C108.901 46.4071 109.484 45.884 110.141 45.4655C110.798 45.0171 111.499 44.6734 112.246 44.4342C112.992 44.1951 113.769 44.0755 114.575 44.0755C114.993 44.0755 115.456 44.1502 115.963 44.2997V50.2183C115.665 50.1585 115.306 50.1137 114.888 50.0838C114.47 50.024 114.067 49.9941 113.679 49.9941C112.514 49.9941 111.529 50.1884 110.723 50.577C109.917 50.9656 109.26 51.5036 108.752 52.1911C108.274 52.8488 107.931 53.626 107.722 54.5227C107.513 55.4195 107.409 56.391 107.409 57.4372V67.8844H101.048V44.7032Z" fill="#220707"/>
<path d="M123.876 41.1162H117.516V35.8702H123.876V41.1162ZM117.516 44.7032H123.876V67.8844H117.516V44.7032Z" fill="#220707"/>
<path d="M127.944 44.7032H133.945V47.8419H134.035C134.871 46.6462 135.871 45.7196 137.036 45.0619C138.23 44.4043 139.589 44.0755 141.112 44.0755C142.575 44.0755 143.904 44.3595 145.098 44.9274C146.322 45.4954 147.248 46.4968 147.875 47.9316C148.562 46.9152 149.487 46.0185 150.652 45.2413C151.846 44.4641 153.25 44.0755 154.862 44.0755C156.086 44.0755 157.221 44.225 158.266 44.5239C159.311 44.8228 160.207 45.3011 160.953 45.9587C161.7 46.6163 162.282 47.4832 162.7 48.5593C163.118 49.6055 163.327 50.8759 163.327 52.3705V67.8844H156.967V54.7469C156.967 53.9697 156.937 53.2374 156.877 52.5499C156.818 51.8623 156.653 51.2645 156.385 50.7563C156.116 50.2482 155.713 49.8446 155.175 49.5457C154.668 49.2468 153.966 49.0973 153.07 49.0973C152.175 49.0973 151.443 49.2767 150.876 49.6354C150.338 49.9642 149.905 50.4126 149.577 50.9805C149.278 51.5186 149.069 52.1463 148.95 52.8637C148.86 53.5512 148.815 54.2537 148.815 54.9711V67.8844H142.455V54.8814C142.455 54.1939 142.44 53.5213 142.411 52.8637C142.381 52.1762 142.246 51.5485 142.007 50.9805C141.798 50.4126 141.425 49.9642 140.888 49.6354C140.38 49.2767 139.619 49.0973 138.603 49.0973C138.305 49.0973 137.902 49.1721 137.394 49.3215C136.916 49.4411 136.439 49.6952 135.961 50.0838C135.513 50.4425 135.125 50.9805 134.796 51.6979C134.468 52.3854 134.304 53.2971 134.304 54.433V67.8844H127.944V44.7032Z" fill="#220707"/>
<path d="M182.822 53.8053C182.523 52.1911 181.985 50.9656 181.209 50.1286C180.463 49.2916 179.313 48.8732 177.76 48.8732C176.745 48.8732 175.894 49.0525 175.207 49.4112C174.55 49.74 174.013 50.1585 173.595 50.6667C173.207 51.1748 172.923 51.7129 172.744 52.2808C172.595 52.8488 172.505 53.3569 172.475 53.8053H182.822ZM172.475 57.8407C172.565 59.9032 173.087 61.3978 174.043 62.3245C174.998 63.2511 176.372 63.7145 178.163 63.7145C179.447 63.7145 180.552 63.4006 181.478 62.7729C182.403 62.1152 182.971 61.4277 183.18 60.7103H188.778C187.883 63.4903 186.509 65.4781 184.658 66.6737C182.807 67.8694 180.567 68.4673 177.94 68.4673C176.118 68.4673 174.476 68.1833 173.013 67.6153C171.55 67.0175 170.31 66.1805 169.295 65.1044C168.28 64.0283 167.489 62.743 166.921 61.2484C166.384 59.7538 166.115 58.1097 166.115 56.3162C166.115 54.5825 166.399 52.9683 166.966 51.4737C167.534 49.9792 168.34 48.6938 169.385 47.6177C170.43 46.5117 171.669 45.6448 173.102 45.0171C174.565 44.3894 176.178 44.0755 177.94 44.0755C179.91 44.0755 181.627 44.4641 183.09 45.2413C184.553 45.9886 185.748 47.0049 186.673 48.2903C187.629 49.5756 188.316 51.0403 188.734 52.6844C189.152 54.3284 189.301 56.0472 189.182 57.8407H172.475Z" fill="#220707"/>
<path d="M191.834 44.7032H197.88V47.9316H198.015C198.821 46.5864 199.866 45.6149 201.15 45.0171C202.434 44.3894 203.748 44.0755 205.092 44.0755C206.794 44.0755 208.182 44.3146 209.257 44.7929C210.362 45.2413 211.228 45.884 211.855 46.7209C212.482 47.528 212.915 48.5294 213.154 49.7251C213.422 50.8909 213.557 52.1911 213.557 53.626V67.8844H207.197V54.7917C207.197 52.8787 206.898 51.4588 206.301 50.5322C205.704 49.5756 204.644 49.0973 203.121 49.0973C201.389 49.0973 200.135 49.6205 199.359 50.6667C198.582 51.683 198.194 53.3719 198.194 55.7333V67.8844H191.834V44.7032Z" fill="#220707"/>
<path d="M225.326 44.7032H229.984V48.9628H225.326V60.4413C225.326 61.5174 225.505 62.2348 225.864 62.5935C226.222 62.9522 226.938 63.1316 228.013 63.1316C228.372 63.1316 228.715 63.1166 229.044 63.0867C229.372 63.0568 229.686 63.012 229.984 62.9522V67.8844C229.447 67.974 228.849 68.0338 228.193 68.0637C227.536 68.0936 226.894 68.1086 226.267 68.1086C225.281 68.1086 224.341 68.0338 223.445 67.8844C222.579 67.7648 221.803 67.5107 221.116 67.1221C220.459 66.7335 219.936 66.1805 219.548 65.4631C219.16 64.7457 218.966 63.8041 218.966 62.6383V48.9628H215.114V44.7032H218.966V37.7534H225.326V44.7032Z" fill="#220707"/>
</svg>
