<svg width="22" height="22" viewBox="0 0 22 22" fill="none" xmlns="http://www.w3.org/2000/svg">
<path fill-rule="evenodd" clip-rule="evenodd" d="M12.589 3.60449L11 0L9.41096 3.60449L6.50126 0.961511L6.50765 4.90424L2.78039 3.67977L4.38107 7.27904L0.480745 7.68478L3.399 10.3182L0 12.284L3.73119 13.4963L1.42125 16.6823L5.32023 16.2638L4.49874 20.119L7.89138 18.1421L8.70038 22L11 18.8065L13.2996 22L14.1086 18.1421L17.5013 20.119L16.6798 16.2638L20.5787 16.6823L18.2688 13.4963L22 12.284L18.601 10.3182L21.5193 7.68478L17.6189 7.27904L19.2196 3.67977L15.4924 4.90424L15.4987 0.961511L12.589 3.60449ZM8.69571 9.26793C8.69571 8.50015 8.07671 7.87774 7.31314 7.87774C6.54956 7.87774 5.93056 8.50015 5.93056 9.26793V10.1947C5.93056 10.9625 6.54956 11.5849 7.31314 11.5849C8.07671 11.5849 8.69571 10.9625 8.69571 10.1947V9.26793ZM16.0694 9.26793C16.0694 8.50015 15.4504 7.87774 14.6869 7.87774C13.9233 7.87774 13.3043 8.50015 13.3043 9.26793V10.1947C13.3043 10.9625 13.9233 11.5849 14.6869 11.5849C15.4504 11.5849 16.0694 10.9625 16.0694 10.1947V9.26793Z" fill="#FC030B"/>
</svg>
