<svg width="13" height="22" viewBox="0 0 13 22" fill="none" xmlns="http://www.w3.org/2000/svg">
<path d="M9.68725 12.3242L11.076 20.4444C11.0916 20.5401 11.0786 20.6383 11.039 20.7261C10.9993 20.8139 10.9348 20.887 10.8541 20.9357C10.7734 20.9844 10.6803 21.0063 10.5872 20.9985C10.4942 20.9907 10.4057 20.9535 10.3335 20.8921L7.05183 18.3329C6.89341 18.21 6.70096 18.1435 6.50321 18.1435C6.30546 18.1435 6.11301 18.21 5.95458 18.3329L2.66742 20.8911C2.59529 20.9525 2.50687 20.9895 2.41395 20.9973C2.32103 21.0052 2.22803 20.9833 2.14736 20.9348C2.06668 20.8863 2.00217 20.8133 1.96243 20.7257C1.92268 20.6381 1.9096 20.54 1.92492 20.4444C1.92492 20.4444 3.29167 12.9051 3.31275 12.3242" fill="#BCBBBB"/>
<path d="M12 6.71447C12 9.87048 9.53757 12.4289 6.5 12.4289C3.46243 12.4289 1 9.87048 1 6.71447C1 3.55845 3.46243 1 6.5 1C9.53757 1 12 3.55845 12 6.71447ZM9.68725 12.3242L11.076 20.4444C11.0916 20.5401 11.0786 20.6383 11.039 20.7261C10.9993 20.8139 10.9348 20.887 10.8541 20.9357C10.7734 20.9844 10.6803 21.0063 10.5872 20.9985C10.4942 20.9907 10.4057 20.9535 10.3335 20.8921L7.05183 18.3329C6.89341 18.21 6.70096 18.1435 6.50321 18.1435C6.30546 18.1435 6.11301 18.21 5.95458 18.3329L2.66742 20.8911C2.59529 20.9525 2.50687 20.9895 2.41395 20.9973C2.32103 21.0052 2.22803 20.9833 2.14736 20.9348C2.06668 20.8863 2.00217 20.8133 1.96243 20.7257C1.92268 20.6381 1.9096 20.54 1.92492 20.4444C1.92492 20.4444 3.29167 12.9051 3.31275 12.3242L6.50321 14.3337L9.68725 12.3242Z" stroke="#BCBBBB" stroke-width="2" stroke-linecap="round" stroke-linejoin="round"/>
</svg>
