<svg width="20" height="22" viewBox="0 0 20 22" fill="none" xmlns="http://www.w3.org/2000/svg">
<path fill-rule="evenodd" clip-rule="evenodd" d="M8.14708 0.787858C7.20034 1.22092 5.82992 1.84704 5.10166 2.17928C4.3734 2.51147 3.39622 2.95852 2.93013 3.17275C2.46405 3.38693 1.99362 3.601 1.88467 3.64839C1.77578 3.69581 1.69384 3.75668 1.70263 3.78363C1.71948 3.83534 2.73787 4.27425 7.2051 6.15505L9.94415 7.30823L13.2431 5.92337C15.0574 5.16168 16.9173 4.38114 17.3761 4.18879C17.8349 3.99645 18.2031 3.81795 18.1944 3.7922C18.1857 3.76639 17.5363 3.45343 16.7512 3.0967C14.7928 2.20681 11.8383 0.847675 10.8538 0.383796C10.4053 0.172438 10.0001 -0.00026138 9.95347 2.96982e-07C9.90667 0.000261291 9.09381 0.354806 8.14708 0.787858ZM0.0146686 5.13295C0.00100382 5.16831 -0.0040277 7.92293 0.00349321 11.2543L0.0171044 17.3114L1.26176 17.8938C3.0341 18.7232 5.62807 19.9465 7.95279 21.0494L9.9564 22L12.2429 20.9299C13.5004 20.3414 14.8868 19.6925 15.3237 19.4878C15.7607 19.2831 16.9882 18.7098 18.0514 18.2138L19.9846 17.3121L19.998 11.1894C20.0054 7.82188 19.9912 5.06665 19.9665 5.06665C19.9417 5.06665 18.5891 5.62153 16.9606 6.29975C15.332 6.97789 13.3323 7.80979 12.5167 8.14833L11.0337 8.76392L11.0071 13.9518L10.9807 19.1397L10.4642 19.3676L9.94769 19.5954L9.4449 19.3605L8.94211 19.1257L8.92857 13.9465L8.9151 8.7674L8.253 8.48994C7.88891 8.33738 6.9951 7.9657 6.26687 7.66406C4.50211 6.93307 0.611309 5.31333 0.293101 5.17719C0.105184 5.09674 0.0330472 5.08531 0.0146686 5.13295Z" fill="#BCBBBB"/>
</svg>
