<svg width="312" height="80" viewBox="0 0 312 80" fill="none" xmlns="http://www.w3.org/2000/svg">
<g filter="url(#filter0_d_307_1363)">
<rect x="12" y="8" width="288" height="56" rx="28" fill="#FA0A2E"/>
</g>
<path d="M48.6201 27.864H52.3881V41.832H60.7401V45H48.6201V27.864ZM70.2386 37.464C70.0786 36.6 69.7906 35.944 69.3746 35.496C68.9746 35.048 68.3586 34.824 67.5266 34.824C66.9826 34.824 66.5266 34.92 66.1586 35.112C65.8066 35.288 65.5186 35.512 65.2946 35.784C65.0866 36.056 64.9346 36.344 64.8386 36.648C64.7586 36.952 64.7106 37.224 64.6946 37.464H70.2386ZM64.6946 39.624C64.7426 40.728 65.0226 41.528 65.5346 42.024C66.0466 42.52 66.7826 42.768 67.7426 42.768C68.4306 42.768 69.0226 42.6 69.5186 42.264C70.0146 41.912 70.3186 41.544 70.4306 41.16H73.4306C72.9506 42.648 72.2146 43.712 71.2226 44.352C70.2306 44.992 69.0306 45.312 67.6226 45.312C66.6466 45.312 65.7666 45.16 64.9826 44.856C64.1986 44.536 63.5346 44.088 62.9906 43.512C62.4466 42.936 62.0226 42.248 61.7186 41.448C61.4306 40.648 61.2866 39.768 61.2866 38.808C61.2866 37.88 61.4386 37.016 61.7426 36.216C62.0466 35.416 62.4786 34.728 63.0386 34.152C63.5986 33.56 64.2626 33.096 65.0306 32.76C65.8146 32.424 66.6786 32.256 67.6226 32.256C68.6786 32.256 69.5986 32.464 70.3826 32.88C71.1666 33.28 71.8066 33.824 72.3026 34.512C72.8146 35.2 73.1826 35.984 73.4066 36.864C73.6306 37.744 73.7106 38.664 73.6466 39.624H64.6946ZM74.9239 36.408C74.9719 35.608 75.1719 34.944 75.5239 34.416C75.8759 33.888 76.3239 33.464 76.8679 33.144C77.4119 32.824 78.0199 32.6 78.6919 32.472C79.3799 32.328 80.0679 32.256 80.7559 32.256C81.3799 32.256 82.0119 32.304 82.6519 32.4C83.2919 32.48 83.8759 32.648 84.4039 32.904C84.9319 33.16 85.3639 33.52 85.6999 33.984C86.0359 34.432 86.2039 35.032 86.2039 35.784V42.24C86.2039 42.8 86.2359 43.336 86.2999 43.848C86.3639 44.36 86.4759 44.744 86.6359 45H83.1799C83.1159 44.808 83.0599 44.616 83.0119 44.424C82.9799 44.216 82.9559 44.008 82.9399 43.8C82.3959 44.36 81.7559 44.752 81.0199 44.976C80.2839 45.2 79.5319 45.312 78.7639 45.312C78.1719 45.312 77.6199 45.24 77.1079 45.096C76.5959 44.952 76.1479 44.728 75.7639 44.424C75.3799 44.12 75.0759 43.736 74.8519 43.272C74.6439 42.808 74.5399 42.256 74.5399 41.616C74.5399 40.912 74.6599 40.336 74.8999 39.888C75.1559 39.424 75.4759 39.056 75.8599 38.784C76.2599 38.512 76.7079 38.312 77.2039 38.184C77.7159 38.04 78.2279 37.928 78.7399 37.848C79.2519 37.768 79.7559 37.704 80.2519 37.656C80.7479 37.608 81.1879 37.536 81.5719 37.44C81.9559 37.344 82.2599 37.208 82.4839 37.032C82.7079 36.84 82.8119 36.568 82.7959 36.216C82.7959 35.848 82.7319 35.56 82.6039 35.352C82.4919 35.128 82.3319 34.96 82.1239 34.848C81.9319 34.72 81.6999 34.64 81.4279 34.608C81.1719 34.56 80.8919 34.536 80.5879 34.536C79.9159 34.536 79.3879 34.68 79.0039 34.968C78.6199 35.256 78.3959 35.736 78.3319 36.408H74.9239ZM82.7959 38.928C82.6519 39.056 82.4679 39.16 82.2439 39.24C82.0359 39.304 81.8039 39.36 81.5479 39.408C81.3079 39.456 81.0519 39.496 80.7799 39.528C80.5079 39.56 80.2359 39.6 79.9639 39.648C79.7079 39.696 79.4519 39.76 79.1959 39.84C78.9559 39.92 78.7399 40.032 78.5479 40.176C78.3719 40.304 78.2279 40.472 78.1159 40.68C78.0039 40.888 77.9479 41.152 77.9479 41.472C77.9479 41.776 78.0039 42.032 78.1159 42.24C78.2279 42.448 78.3799 42.616 78.5719 42.744C78.7639 42.856 78.9879 42.936 79.2439 42.984C79.4999 43.032 79.7639 43.056 80.0359 43.056C80.7079 43.056 81.2279 42.944 81.5959 42.72C81.9639 42.496 82.2359 42.232 82.4119 41.928C82.5879 41.608 82.6919 41.288 82.7239 40.968C82.7719 40.648 82.7959 40.392 82.7959 40.2V38.928ZM97.0571 38.76C97.0571 38.248 97.0091 37.76 96.9131 37.296C96.8171 36.816 96.6491 36.4 96.4091 36.048C96.1851 35.68 95.8891 35.384 95.5211 35.16C95.1531 34.936 94.6891 34.824 94.1291 34.824C93.5691 34.824 93.0971 34.936 92.7131 35.16C92.3291 35.384 92.0171 35.68 91.7771 36.048C91.5531 36.416 91.3851 36.84 91.2731 37.32C91.1771 37.784 91.1291 38.272 91.1291 38.784C91.1291 39.264 91.1851 39.744 91.2971 40.224C91.4091 40.704 91.5851 41.136 91.8251 41.52C92.0811 41.888 92.3931 42.192 92.7611 42.432C93.1451 42.656 93.6011 42.768 94.1291 42.768C94.6891 42.768 95.1531 42.656 95.5211 42.432C95.9051 42.208 96.2091 41.912 96.4331 41.544C96.6571 41.16 96.8171 40.728 96.9131 40.248C97.0091 39.768 97.0571 39.272 97.0571 38.76ZM97.1051 43.416H97.0571C96.6571 44.088 96.1291 44.576 95.4731 44.88C94.8331 45.168 94.1051 45.312 93.2891 45.312C92.3611 45.312 91.5451 45.136 90.8411 44.784C90.1371 44.416 89.5531 43.928 89.0891 43.32C88.6411 42.696 88.2971 41.984 88.0571 41.184C87.8331 40.384 87.7211 39.552 87.7211 38.688C87.7211 37.856 87.8331 37.056 88.0571 36.288C88.2971 35.504 88.6411 34.816 89.0891 34.224C89.5531 33.632 90.1291 33.16 90.8171 32.808C91.5051 32.44 92.3051 32.256 93.2171 32.256C93.9531 32.256 94.6491 32.416 95.3051 32.736C95.9771 33.04 96.5051 33.496 96.8891 34.104H96.9371V27.864H100.345V45H97.1051V43.416ZM110.673 37.464C110.513 36.6 110.225 35.944 109.809 35.496C109.409 35.048 108.793 34.824 107.961 34.824C107.417 34.824 106.961 34.92 106.593 35.112C106.241 35.288 105.953 35.512 105.729 35.784C105.521 36.056 105.369 36.344 105.273 36.648C105.193 36.952 105.145 37.224 105.129 37.464H110.673ZM105.129 39.624C105.177 40.728 105.457 41.528 105.969 42.024C106.481 42.52 107.217 42.768 108.177 42.768C108.865 42.768 109.457 42.6 109.953 42.264C110.449 41.912 110.753 41.544 110.865 41.16H113.865C113.385 42.648 112.649 43.712 111.657 44.352C110.665 44.992 109.465 45.312 108.057 45.312C107.081 45.312 106.201 45.16 105.417 44.856C104.633 44.536 103.969 44.088 103.425 43.512C102.881 42.936 102.457 42.248 102.153 41.448C101.865 40.648 101.721 39.768 101.721 38.808C101.721 37.88 101.873 37.016 102.177 36.216C102.481 35.416 102.913 34.728 103.473 34.152C104.033 33.56 104.697 33.096 105.465 32.76C106.249 32.424 107.113 32.256 108.057 32.256C109.113 32.256 110.033 32.464 110.817 32.88C111.601 33.28 112.241 33.824 112.737 34.512C113.249 35.2 113.617 35.984 113.841 36.864C114.065 37.744 114.145 38.664 114.081 39.624H105.129ZM115.502 32.592H118.742V34.896H118.79C118.95 34.512 119.166 34.16 119.438 33.84C119.71 33.504 120.022 33.224 120.374 33C120.726 32.76 121.102 32.576 121.502 32.448C121.902 32.32 122.318 32.256 122.75 32.256C122.974 32.256 123.222 32.296 123.494 32.376V35.544C123.334 35.512 123.142 35.488 122.918 35.472C122.694 35.44 122.478 35.424 122.27 35.424C121.646 35.424 121.118 35.528 120.686 35.736C120.254 35.944 119.902 36.232 119.63 36.6C119.374 36.952 119.19 37.368 119.078 37.848C118.966 38.328 118.91 38.848 118.91 39.408V45H115.502V32.592ZM126.87 40.968C126.87 41.336 126.942 41.656 127.086 41.928C127.246 42.184 127.446 42.4 127.686 42.576C127.926 42.736 128.198 42.856 128.502 42.936C128.822 43.016 129.15 43.056 129.486 43.056C129.726 43.056 129.974 43.032 130.23 42.984C130.502 42.92 130.742 42.832 130.95 42.72C131.174 42.592 131.358 42.432 131.502 42.24C131.646 42.032 131.718 41.776 131.718 41.472C131.718 40.96 131.374 40.576 130.686 40.32C130.014 40.064 129.07 39.808 127.854 39.552C127.358 39.44 126.87 39.312 126.39 39.168C125.926 39.008 125.51 38.808 125.142 38.568C124.774 38.312 124.478 38 124.254 37.632C124.03 37.248 123.918 36.784 123.918 36.24C123.918 35.44 124.07 34.784 124.374 34.272C124.694 33.76 125.11 33.36 125.622 33.072C126.134 32.768 126.71 32.56 127.35 32.448C127.99 32.32 128.646 32.256 129.318 32.256C129.99 32.256 130.638 32.32 131.262 32.448C131.902 32.576 132.47 32.792 132.966 33.096C133.462 33.4 133.87 33.808 134.19 34.32C134.526 34.816 134.726 35.448 134.79 36.216H131.55C131.502 35.56 131.254 35.12 130.806 34.896C130.358 34.656 129.83 34.536 129.222 34.536C129.03 34.536 128.822 34.552 128.598 34.584C128.374 34.6 128.166 34.648 127.974 34.728C127.798 34.808 127.646 34.928 127.518 35.088C127.39 35.232 127.326 35.432 127.326 35.688C127.326 35.992 127.438 36.24 127.662 36.432C127.886 36.624 128.174 36.784 128.526 36.912C128.894 37.024 129.31 37.128 129.774 37.224C130.238 37.32 130.71 37.424 131.19 37.536C131.686 37.648 132.166 37.784 132.63 37.944C133.11 38.104 133.534 38.32 133.902 38.592C134.27 38.848 134.566 39.176 134.79 39.576C135.014 39.96 135.126 40.44 135.126 41.016C135.126 41.832 134.958 42.52 134.622 43.08C134.302 43.624 133.878 44.064 133.35 44.4C132.822 44.736 132.214 44.968 131.526 45.096C130.854 45.24 130.166 45.312 129.462 45.312C128.742 45.312 128.038 45.24 127.35 45.096C126.662 44.952 126.046 44.712 125.502 44.376C124.974 44.04 124.534 43.6 124.182 43.056C123.846 42.496 123.662 41.8 123.63 40.968H126.87ZM151.697 38.808C151.697 38.28 151.641 37.776 151.529 37.296C151.417 36.816 151.241 36.392 151.001 36.024C150.761 35.656 150.457 35.368 150.089 35.16C149.737 34.936 149.305 34.824 148.793 34.824C148.297 34.824 147.865 34.936 147.497 35.16C147.129 35.368 146.825 35.656 146.585 36.024C146.345 36.392 146.169 36.816 146.057 37.296C145.945 37.776 145.889 38.28 145.889 38.808C145.889 39.32 145.945 39.816 146.057 40.296C146.169 40.776 146.345 41.2 146.585 41.568C146.825 41.936 147.129 42.232 147.497 42.456C147.865 42.664 148.297 42.768 148.793 42.768C149.305 42.768 149.737 42.664 150.089 42.456C150.457 42.232 150.761 41.936 151.001 41.568C151.241 41.2 151.417 40.776 151.529 40.296C151.641 39.816 151.697 39.32 151.697 38.808ZM142.601 27.864H146.009V34.104H146.057C146.473 33.464 147.033 33 147.737 32.712C148.457 32.408 149.201 32.256 149.969 32.256C150.593 32.256 151.209 32.384 151.817 32.64C152.425 32.896 152.969 33.288 153.449 33.816C153.945 34.344 154.345 35.024 154.649 35.856C154.953 36.672 155.105 37.648 155.105 38.784C155.105 39.92 154.953 40.904 154.649 41.736C154.345 42.552 153.945 43.224 153.449 43.752C152.969 44.28 152.425 44.672 151.817 44.928C151.209 45.184 150.593 45.312 149.969 45.312C149.057 45.312 148.241 45.168 147.521 44.88C146.801 44.592 146.257 44.104 145.889 43.416H145.841V45H142.601V27.864ZM162.793 46.536C162.425 47.544 161.913 48.264 161.257 48.696C160.601 49.128 159.689 49.344 158.521 49.344C158.169 49.344 157.817 49.328 157.465 49.296C157.129 49.28 156.785 49.256 156.433 49.224V46.416C156.753 46.448 157.081 46.48 157.417 46.512C157.753 46.544 158.089 46.552 158.425 46.536C158.873 46.488 159.201 46.312 159.409 46.008C159.633 45.704 159.745 45.368 159.745 45C159.745 44.728 159.697 44.472 159.601 44.232L155.257 32.592H158.881L161.689 41.088H161.737L164.449 32.592H167.977L162.793 46.536ZM183.046 36.96C182.822 35.536 181.982 34.824 180.526 34.824C179.982 34.824 179.526 34.952 179.158 35.208C178.79 35.448 178.486 35.768 178.246 36.168C178.022 36.552 177.862 36.984 177.766 37.464C177.67 37.928 177.622 38.392 177.622 38.856C177.622 39.304 177.67 39.76 177.766 40.224C177.862 40.688 178.014 41.112 178.222 41.496C178.446 41.864 178.742 42.168 179.11 42.408C179.478 42.648 179.926 42.768 180.454 42.768C181.27 42.768 181.894 42.544 182.326 42.096C182.774 41.632 183.054 41.016 183.166 40.248H186.454C186.23 41.896 185.59 43.152 184.534 44.016C183.478 44.88 182.126 45.312 180.478 45.312C179.55 45.312 178.694 45.16 177.91 44.856C177.142 44.536 176.486 44.096 175.942 43.536C175.398 42.976 174.974 42.312 174.67 41.544C174.366 40.76 174.214 39.904 174.214 38.976C174.214 38.016 174.35 37.128 174.622 36.312C174.91 35.48 175.326 34.768 175.87 34.176C176.414 33.568 177.078 33.096 177.862 32.76C178.646 32.424 179.542 32.256 180.55 32.256C181.286 32.256 181.99 32.352 182.662 32.544C183.35 32.736 183.958 33.032 184.486 33.432C185.03 33.816 185.47 34.304 185.806 34.896C186.142 35.472 186.334 36.16 186.382 36.96H183.046ZM187.635 36.408C187.683 35.608 187.883 34.944 188.235 34.416C188.587 33.888 189.035 33.464 189.579 33.144C190.123 32.824 190.731 32.6 191.403 32.472C192.091 32.328 192.779 32.256 193.467 32.256C194.091 32.256 194.723 32.304 195.363 32.4C196.003 32.48 196.587 32.648 197.115 32.904C197.643 33.16 198.075 33.52 198.411 33.984C198.747 34.432 198.915 35.032 198.915 35.784V42.24C198.915 42.8 198.947 43.336 199.011 43.848C199.075 44.36 199.187 44.744 199.347 45H195.891C195.827 44.808 195.771 44.616 195.723 44.424C195.691 44.216 195.667 44.008 195.651 43.8C195.107 44.36 194.467 44.752 193.731 44.976C192.995 45.2 192.243 45.312 191.475 45.312C190.883 45.312 190.331 45.24 189.819 45.096C189.307 44.952 188.859 44.728 188.475 44.424C188.091 44.12 187.787 43.736 187.563 43.272C187.355 42.808 187.251 42.256 187.251 41.616C187.251 40.912 187.371 40.336 187.611 39.888C187.867 39.424 188.187 39.056 188.571 38.784C188.971 38.512 189.419 38.312 189.915 38.184C190.427 38.04 190.939 37.928 191.451 37.848C191.963 37.768 192.467 37.704 192.963 37.656C193.459 37.608 193.899 37.536 194.283 37.44C194.667 37.344 194.971 37.208 195.195 37.032C195.419 36.84 195.523 36.568 195.507 36.216C195.507 35.848 195.443 35.56 195.315 35.352C195.203 35.128 195.043 34.96 194.835 34.848C194.643 34.72 194.411 34.64 194.139 34.608C193.883 34.56 193.603 34.536 193.299 34.536C192.627 34.536 192.099 34.68 191.715 34.968C191.331 35.256 191.107 35.736 191.043 36.408H187.635ZM195.507 38.928C195.363 39.056 195.179 39.16 194.955 39.24C194.747 39.304 194.515 39.36 194.259 39.408C194.019 39.456 193.763 39.496 193.491 39.528C193.219 39.56 192.947 39.6 192.675 39.648C192.419 39.696 192.163 39.76 191.907 39.84C191.667 39.92 191.451 40.032 191.259 40.176C191.083 40.304 190.939 40.472 190.827 40.68C190.715 40.888 190.659 41.152 190.659 41.472C190.659 41.776 190.715 42.032 190.827 42.24C190.939 42.448 191.091 42.616 191.283 42.744C191.475 42.856 191.699 42.936 191.955 42.984C192.211 43.032 192.475 43.056 192.747 43.056C193.419 43.056 193.939 42.944 194.307 42.72C194.675 42.496 194.947 42.232 195.123 41.928C195.299 41.608 195.403 41.288 195.435 40.968C195.483 40.648 195.507 40.392 195.507 40.2V38.928ZM205.28 32.592H207.776V34.872H205.28V41.016C205.28 41.592 205.376 41.976 205.568 42.168C205.76 42.36 206.144 42.456 206.72 42.456C206.912 42.456 207.096 42.448 207.272 42.432C207.448 42.416 207.616 42.392 207.776 42.36V45C207.488 45.048 207.168 45.08 206.816 45.096C206.464 45.112 206.12 45.12 205.784 45.12C205.256 45.12 204.752 45.08 204.272 45C203.808 44.936 203.392 44.8 203.024 44.592C202.672 44.384 202.392 44.088 202.184 43.704C201.976 43.32 201.872 42.816 201.872 42.192V34.872H199.808V32.592H201.872V28.872H205.28V32.592ZM217.15 37.464C216.99 36.6 216.702 35.944 216.286 35.496C215.886 35.048 215.27 34.824 214.438 34.824C213.894 34.824 213.438 34.92 213.07 35.112C212.718 35.288 212.43 35.512 212.206 35.784C211.998 36.056 211.846 36.344 211.75 36.648C211.67 36.952 211.622 37.224 211.606 37.464H217.15ZM211.606 39.624C211.654 40.728 211.934 41.528 212.446 42.024C212.958 42.52 213.694 42.768 214.654 42.768C215.342 42.768 215.934 42.6 216.43 42.264C216.926 41.912 217.23 41.544 217.342 41.16H220.342C219.862 42.648 219.126 43.712 218.134 44.352C217.142 44.992 215.942 45.312 214.534 45.312C213.558 45.312 212.678 45.16 211.894 44.856C211.11 44.536 210.446 44.088 209.902 43.512C209.358 42.936 208.934 42.248 208.63 41.448C208.342 40.648 208.198 39.768 208.198 38.808C208.198 37.88 208.35 37.016 208.654 36.216C208.958 35.416 209.39 34.728 209.95 34.152C210.51 33.56 211.174 33.096 211.942 32.76C212.726 32.424 213.59 32.256 214.534 32.256C215.59 32.256 216.51 32.464 217.294 32.88C218.078 33.28 218.718 33.824 219.214 34.512C219.726 35.2 220.094 35.984 220.318 36.864C220.542 37.744 220.622 38.664 220.558 39.624H211.606ZM227.763 42.072C228.243 42.072 228.667 41.976 229.035 41.784C229.403 41.592 229.707 41.336 229.947 41.016C230.187 40.696 230.363 40.336 230.475 39.936C230.603 39.52 230.667 39.088 230.667 38.64C230.667 38.128 230.619 37.648 230.523 37.2C230.427 36.736 230.267 36.328 230.043 35.976C229.819 35.624 229.523 35.344 229.155 35.136C228.787 34.928 228.323 34.824 227.763 34.824C227.283 34.824 226.867 34.92 226.515 35.112C226.179 35.304 225.891 35.568 225.651 35.904C225.427 36.224 225.259 36.6 225.147 37.032C225.051 37.448 225.003 37.888 225.003 38.352C225.003 38.8 225.043 39.248 225.123 39.696C225.219 40.128 225.371 40.52 225.579 40.872C225.803 41.224 226.091 41.512 226.443 41.736C226.795 41.96 227.235 42.072 227.763 42.072ZM233.907 44.208C233.907 44.704 233.835 45.272 233.691 45.912C233.563 46.552 233.275 47.144 232.827 47.688C232.379 48.248 231.731 48.72 230.883 49.104C230.035 49.488 228.899 49.68 227.475 49.68C226.867 49.68 226.243 49.6 225.603 49.44C224.979 49.296 224.403 49.064 223.875 48.744C223.363 48.424 222.931 48.008 222.579 47.496C222.243 47 222.051 46.4 222.003 45.696H225.387C225.547 46.336 225.859 46.776 226.323 47.016C226.787 47.272 227.323 47.4 227.931 47.4C228.891 47.4 229.587 47.112 230.019 46.536C230.467 45.96 230.683 45.232 230.667 44.352V42.72H230.619C230.251 43.376 229.723 43.864 229.035 44.184C228.363 44.488 227.651 44.64 226.899 44.64C225.971 44.64 225.171 44.48 224.499 44.16C223.827 43.824 223.275 43.376 222.843 42.816C222.411 42.24 222.091 41.576 221.883 40.824C221.691 40.056 221.595 39.248 221.595 38.4C221.595 37.6 221.707 36.832 221.931 36.096C222.171 35.344 222.515 34.688 222.963 34.128C223.411 33.552 223.963 33.096 224.619 32.76C225.291 32.424 226.059 32.256 226.923 32.256C227.739 32.256 228.451 32.408 229.059 32.712C229.683 33.016 230.203 33.528 230.619 34.248H230.667V32.592H233.907V44.208ZM239.075 38.808C239.075 39.304 239.123 39.792 239.219 40.272C239.315 40.736 239.475 41.16 239.699 41.544C239.939 41.912 240.251 42.208 240.635 42.432C241.019 42.656 241.499 42.768 242.075 42.768C242.651 42.768 243.131 42.656 243.515 42.432C243.915 42.208 244.227 41.912 244.451 41.544C244.691 41.16 244.859 40.736 244.955 40.272C245.051 39.792 245.099 39.304 245.099 38.808C245.099 38.312 245.051 37.824 244.955 37.344C244.859 36.864 244.691 36.44 244.451 36.072C244.227 35.704 243.915 35.408 243.515 35.184C243.131 34.944 242.651 34.824 242.075 34.824C241.499 34.824 241.019 34.944 240.635 35.184C240.251 35.408 239.939 35.704 239.699 36.072C239.475 36.44 239.315 36.864 239.219 37.344C239.123 37.824 239.075 38.312 239.075 38.808ZM235.667 38.808C235.667 37.816 235.819 36.92 236.123 36.12C236.427 35.304 236.859 34.616 237.419 34.056C237.979 33.48 238.651 33.04 239.435 32.736C240.219 32.416 241.099 32.256 242.075 32.256C243.051 32.256 243.931 32.416 244.715 32.736C245.515 33.04 246.195 33.48 246.755 34.056C247.315 34.616 247.747 35.304 248.051 36.12C248.355 36.92 248.507 37.816 248.507 38.808C248.507 39.8 248.355 40.696 248.051 41.496C247.747 42.296 247.315 42.984 246.755 43.56C246.195 44.12 245.515 44.552 244.715 44.856C243.931 45.16 243.051 45.312 242.075 45.312C241.099 45.312 240.219 45.16 239.435 44.856C238.651 44.552 237.979 44.12 237.419 43.56C236.859 42.984 236.427 42.296 236.123 41.496C235.819 40.696 235.667 39.8 235.667 38.808ZM250.123 32.592H253.363V34.896H253.411C253.571 34.512 253.787 34.16 254.059 33.84C254.331 33.504 254.643 33.224 254.995 33C255.347 32.76 255.723 32.576 256.123 32.448C256.523 32.32 256.939 32.256 257.371 32.256C257.595 32.256 257.843 32.296 258.115 32.376V35.544C257.955 35.512 257.763 35.488 257.539 35.472C257.315 35.44 257.099 35.424 256.891 35.424C256.267 35.424 255.739 35.528 255.307 35.736C254.875 35.944 254.523 36.232 254.251 36.6C253.995 36.952 253.811 37.368 253.699 37.848C253.587 38.328 253.531 38.848 253.531 39.408V45H250.123V32.592ZM264.971 46.536C264.603 47.544 264.091 48.264 263.435 48.696C262.779 49.128 261.867 49.344 260.699 49.344C260.347 49.344 259.995 49.328 259.643 49.296C259.307 49.28 258.963 49.256 258.611 49.224V46.416C258.931 46.448 259.259 46.48 259.595 46.512C259.931 46.544 260.267 46.552 260.603 46.536C261.051 46.488 261.379 46.312 261.587 46.008C261.811 45.704 261.923 45.368 261.923 45C261.923 44.728 261.875 44.472 261.779 44.232L257.435 32.592H261.059L263.867 41.088H263.915L266.627 32.592H270.155L264.971 46.536Z" fill="#F2F2F2"/>
<defs>
<filter id="filter0_d_307_1363" x="0.1" y="0.1" width="311.8" height="79.8" filterUnits="userSpaceOnUse" color-interpolation-filters="sRGB">
<feFlood flood-opacity="0" result="BackgroundImageFix"/>
<feColorMatrix in="SourceAlpha" type="matrix" values="0 0 0 0 0 0 0 0 0 0 0 0 0 0 0 0 0 0 127 0" result="hardAlpha"/>
<feOffset dy="4"/>
<feGaussianBlur stdDeviation="5.95"/>
<feComposite in2="hardAlpha" operator="out"/>
<feColorMatrix type="matrix" values="0 0 0 0 0 0 0 0 0 0 0 0 0 0 0 0 0 0 0.25 0"/>
<feBlend mode="normal" in2="BackgroundImageFix" result="effect1_dropShadow_307_1363"/>
<feBlend mode="normal" in="SourceGraphic" in2="effect1_dropShadow_307_1363" result="shape"/>
</filter>
</defs>
</svg>
