<svg width="312" height="80" viewBox="0 0 312 80" fill="none" xmlns="http://www.w3.org/2000/svg">
<g filter="url(#filter0_d_307_1362)">
<rect x="12" y="8" width="288" height="56" rx="28" fill="#3C45C4"/>
</g>
<path d="M43.9935 26.864H47.7615V44H43.9935V26.864ZM50.1116 31.592H53.3516V33.32H53.4236C53.8556 32.6 54.4156 32.08 55.1036 31.76C55.7916 31.424 56.4956 31.256 57.2156 31.256C58.1276 31.256 58.8716 31.384 59.4476 31.64C60.0396 31.88 60.5036 32.224 60.8396 32.672C61.1756 33.104 61.4076 33.64 61.5356 34.28C61.6796 34.904 61.7516 35.6 61.7516 36.368V44H58.3436V36.992C58.3436 35.968 58.1836 35.208 57.8636 34.712C57.5436 34.2 56.9756 33.944 56.1596 33.944C55.2316 33.944 54.5596 34.224 54.1436 34.784C53.7276 35.328 53.5196 36.232 53.5196 37.496V44H50.1116V31.592ZM72.5462 37.76C72.5462 37.248 72.4982 36.76 72.4022 36.296C72.3062 35.816 72.1382 35.4 71.8982 35.048C71.6742 34.68 71.3782 34.384 71.0102 34.16C70.6422 33.936 70.1782 33.824 69.6182 33.824C69.0582 33.824 68.5862 33.936 68.2022 34.16C67.8182 34.384 67.5062 34.68 67.2662 35.048C67.0422 35.416 66.8742 35.84 66.7622 36.32C66.6662 36.784 66.6182 37.272 66.6182 37.784C66.6182 38.264 66.6742 38.744 66.7862 39.224C66.8982 39.704 67.0742 40.136 67.3142 40.52C67.5702 40.888 67.8822 41.192 68.2502 41.432C68.6342 41.656 69.0902 41.768 69.6182 41.768C70.1782 41.768 70.6422 41.656 71.0102 41.432C71.3942 41.208 71.6982 40.912 71.9222 40.544C72.1462 40.16 72.3062 39.728 72.4022 39.248C72.4982 38.768 72.5462 38.272 72.5462 37.76ZM72.5942 42.416H72.5462C72.1462 43.088 71.6182 43.576 70.9622 43.88C70.3222 44.168 69.5942 44.312 68.7782 44.312C67.8502 44.312 67.0342 44.136 66.3302 43.784C65.6262 43.416 65.0422 42.928 64.5782 42.32C64.1302 41.696 63.7862 40.984 63.5462 40.184C63.3222 39.384 63.2102 38.552 63.2102 37.688C63.2102 36.856 63.3222 36.056 63.5462 35.288C63.7862 34.504 64.1302 33.816 64.5782 33.224C65.0422 32.632 65.6182 32.16 66.3062 31.808C66.9942 31.44 67.7942 31.256 68.7062 31.256C69.4422 31.256 70.1382 31.416 70.7942 31.736C71.4662 32.04 71.9942 32.496 72.3782 33.104H72.4262V26.864H75.8342V44H72.5942V42.416ZM81.3141 29.672H77.9061V26.864H81.3141V29.672ZM77.9061 31.592H81.3141V44H77.9061V31.592ZM90.2616 44H86.4696L82.2216 31.592H85.7976L88.4136 40.064H88.4616L91.0776 31.592H94.4616L90.2616 44ZM98.7703 29.672H95.3623V26.864H98.7703V29.672ZM95.3623 31.592H98.7703V44H95.3623V31.592ZM109.662 37.76C109.662 37.248 109.614 36.76 109.518 36.296C109.422 35.816 109.254 35.4 109.014 35.048C108.79 34.68 108.494 34.384 108.126 34.16C107.758 33.936 107.294 33.824 106.734 33.824C106.174 33.824 105.702 33.936 105.318 34.16C104.934 34.384 104.622 34.68 104.382 35.048C104.158 35.416 103.99 35.84 103.878 36.32C103.782 36.784 103.734 37.272 103.734 37.784C103.734 38.264 103.79 38.744 103.902 39.224C104.014 39.704 104.19 40.136 104.43 40.52C104.686 40.888 104.998 41.192 105.366 41.432C105.75 41.656 106.206 41.768 106.734 41.768C107.294 41.768 107.758 41.656 108.126 41.432C108.51 41.208 108.814 40.912 109.038 40.544C109.262 40.16 109.422 39.728 109.518 39.248C109.614 38.768 109.662 38.272 109.662 37.76ZM109.71 42.416H109.662C109.262 43.088 108.734 43.576 108.078 43.88C107.438 44.168 106.71 44.312 105.894 44.312C104.966 44.312 104.15 44.136 103.446 43.784C102.742 43.416 102.158 42.928 101.694 42.32C101.246 41.696 100.902 40.984 100.662 40.184C100.438 39.384 100.326 38.552 100.326 37.688C100.326 36.856 100.438 36.056 100.662 35.288C100.902 34.504 101.246 33.816 101.694 33.224C102.158 32.632 102.734 32.16 103.422 31.808C104.11 31.44 104.91 31.256 105.822 31.256C106.558 31.256 107.254 31.416 107.91 31.736C108.582 32.04 109.11 32.496 109.494 33.104H109.542V26.864H112.95V44H109.71V42.416ZM126.566 44H123.326V42.272H123.254C122.822 42.992 122.262 43.512 121.574 43.832C120.886 44.152 120.182 44.312 119.462 44.312C118.55 44.312 117.798 44.192 117.206 43.952C116.63 43.712 116.174 43.376 115.838 42.944C115.502 42.496 115.262 41.96 115.118 41.336C114.99 40.696 114.926 39.992 114.926 39.224V31.592H118.334V38.6C118.334 39.624 118.494 40.392 118.814 40.904C119.134 41.4 119.702 41.648 120.518 41.648C121.446 41.648 122.118 41.376 122.534 40.832C122.95 40.272 123.158 39.36 123.158 38.096V31.592H126.566V44ZM128.408 35.408C128.456 34.608 128.656 33.944 129.008 33.416C129.36 32.888 129.808 32.464 130.352 32.144C130.896 31.824 131.504 31.6 132.176 31.472C132.864 31.328 133.552 31.256 134.24 31.256C134.864 31.256 135.496 31.304 136.136 31.4C136.776 31.48 137.36 31.648 137.888 31.904C138.416 32.16 138.848 32.52 139.184 32.984C139.52 33.432 139.688 34.032 139.688 34.784V41.24C139.688 41.8 139.72 42.336 139.784 42.848C139.848 43.36 139.96 43.744 140.12 44H136.664C136.6 43.808 136.544 43.616 136.496 43.424C136.464 43.216 136.44 43.008 136.424 42.8C135.88 43.36 135.24 43.752 134.504 43.976C133.768 44.2 133.016 44.312 132.248 44.312C131.656 44.312 131.104 44.24 130.592 44.096C130.08 43.952 129.632 43.728 129.248 43.424C128.864 43.12 128.56 42.736 128.336 42.272C128.128 41.808 128.024 41.256 128.024 40.616C128.024 39.912 128.144 39.336 128.384 38.888C128.64 38.424 128.96 38.056 129.344 37.784C129.744 37.512 130.192 37.312 130.688 37.184C131.2 37.04 131.712 36.928 132.224 36.848C132.736 36.768 133.24 36.704 133.736 36.656C134.232 36.608 134.672 36.536 135.056 36.44C135.44 36.344 135.744 36.208 135.968 36.032C136.192 35.84 136.296 35.568 136.28 35.216C136.28 34.848 136.216 34.56 136.088 34.352C135.976 34.128 135.816 33.96 135.608 33.848C135.416 33.72 135.184 33.64 134.912 33.608C134.656 33.56 134.376 33.536 134.072 33.536C133.4 33.536 132.872 33.68 132.488 33.968C132.104 34.256 131.88 34.736 131.816 35.408H128.408ZM136.28 37.928C136.136 38.056 135.952 38.16 135.728 38.24C135.52 38.304 135.288 38.36 135.032 38.408C134.792 38.456 134.536 38.496 134.264 38.528C133.992 38.56 133.72 38.6 133.448 38.648C133.192 38.696 132.936 38.76 132.68 38.84C132.44 38.92 132.224 39.032 132.032 39.176C131.856 39.304 131.712 39.472 131.6 39.68C131.488 39.888 131.432 40.152 131.432 40.472C131.432 40.776 131.488 41.032 131.6 41.24C131.712 41.448 131.864 41.616 132.056 41.744C132.248 41.856 132.472 41.936 132.728 41.984C132.984 42.032 133.248 42.056 133.52 42.056C134.192 42.056 134.712 41.944 135.08 41.72C135.448 41.496 135.72 41.232 135.896 40.928C136.072 40.608 136.176 40.288 136.208 39.968C136.256 39.648 136.28 39.392 136.28 39.2V37.928ZM141.829 26.864H145.237V44H141.829V26.864ZM153.761 26.864H157.529V40.832H165.881V44H153.761V26.864ZM175.379 36.464C175.219 35.6 174.931 34.944 174.515 34.496C174.115 34.048 173.499 33.824 172.667 33.824C172.123 33.824 171.667 33.92 171.299 34.112C170.947 34.288 170.659 34.512 170.435 34.784C170.227 35.056 170.075 35.344 169.979 35.648C169.899 35.952 169.851 36.224 169.835 36.464H175.379ZM169.835 38.624C169.883 39.728 170.163 40.528 170.675 41.024C171.187 41.52 171.923 41.768 172.883 41.768C173.571 41.768 174.163 41.6 174.659 41.264C175.155 40.912 175.459 40.544 175.571 40.16H178.571C178.091 41.648 177.355 42.712 176.363 43.352C175.371 43.992 174.171 44.312 172.763 44.312C171.787 44.312 170.907 44.16 170.123 43.856C169.339 43.536 168.675 43.088 168.131 42.512C167.587 41.936 167.163 41.248 166.859 40.448C166.571 39.648 166.427 38.768 166.427 37.808C166.427 36.88 166.579 36.016 166.883 35.216C167.187 34.416 167.619 33.728 168.179 33.152C168.739 32.56 169.403 32.096 170.171 31.76C170.955 31.424 171.819 31.256 172.763 31.256C173.819 31.256 174.739 31.464 175.523 31.88C176.307 32.28 176.947 32.824 177.443 33.512C177.955 34.2 178.323 34.984 178.547 35.864C178.771 36.744 178.851 37.664 178.787 38.624H169.835ZM180.064 35.408C180.112 34.608 180.312 33.944 180.664 33.416C181.016 32.888 181.464 32.464 182.008 32.144C182.552 31.824 183.16 31.6 183.832 31.472C184.52 31.328 185.208 31.256 185.896 31.256C186.52 31.256 187.152 31.304 187.792 31.4C188.432 31.48 189.016 31.648 189.544 31.904C190.072 32.16 190.504 32.52 190.84 32.984C191.176 33.432 191.344 34.032 191.344 34.784V41.24C191.344 41.8 191.376 42.336 191.44 42.848C191.504 43.36 191.616 43.744 191.776 44H188.32C188.256 43.808 188.2 43.616 188.152 43.424C188.12 43.216 188.096 43.008 188.08 42.8C187.536 43.36 186.896 43.752 186.16 43.976C185.424 44.2 184.672 44.312 183.904 44.312C183.312 44.312 182.76 44.24 182.248 44.096C181.736 43.952 181.288 43.728 180.904 43.424C180.52 43.12 180.216 42.736 179.992 42.272C179.784 41.808 179.68 41.256 179.68 40.616C179.68 39.912 179.8 39.336 180.04 38.888C180.296 38.424 180.616 38.056 181 37.784C181.4 37.512 181.848 37.312 182.344 37.184C182.856 37.04 183.368 36.928 183.88 36.848C184.392 36.768 184.896 36.704 185.392 36.656C185.888 36.608 186.328 36.536 186.712 36.44C187.096 36.344 187.4 36.208 187.624 36.032C187.848 35.84 187.952 35.568 187.936 35.216C187.936 34.848 187.872 34.56 187.744 34.352C187.632 34.128 187.472 33.96 187.264 33.848C187.072 33.72 186.84 33.64 186.568 33.608C186.312 33.56 186.032 33.536 185.728 33.536C185.056 33.536 184.528 33.68 184.144 33.968C183.76 34.256 183.536 34.736 183.472 35.408H180.064ZM187.936 37.928C187.792 38.056 187.608 38.16 187.384 38.24C187.176 38.304 186.944 38.36 186.688 38.408C186.448 38.456 186.192 38.496 185.92 38.528C185.648 38.56 185.376 38.6 185.104 38.648C184.848 38.696 184.592 38.76 184.336 38.84C184.096 38.92 183.88 39.032 183.688 39.176C183.512 39.304 183.368 39.472 183.256 39.68C183.144 39.888 183.088 40.152 183.088 40.472C183.088 40.776 183.144 41.032 183.256 41.24C183.368 41.448 183.52 41.616 183.712 41.744C183.904 41.856 184.128 41.936 184.384 41.984C184.64 42.032 184.904 42.056 185.176 42.056C185.848 42.056 186.368 41.944 186.736 41.72C187.104 41.496 187.376 41.232 187.552 40.928C187.728 40.608 187.832 40.288 187.864 39.968C187.912 39.648 187.936 39.392 187.936 39.2V37.928ZM202.198 37.76C202.198 37.248 202.15 36.76 202.054 36.296C201.958 35.816 201.79 35.4 201.55 35.048C201.326 34.68 201.03 34.384 200.662 34.16C200.294 33.936 199.83 33.824 199.27 33.824C198.71 33.824 198.238 33.936 197.854 34.16C197.47 34.384 197.158 34.68 196.918 35.048C196.694 35.416 196.526 35.84 196.414 36.32C196.318 36.784 196.27 37.272 196.27 37.784C196.27 38.264 196.326 38.744 196.438 39.224C196.55 39.704 196.726 40.136 196.966 40.52C197.222 40.888 197.534 41.192 197.902 41.432C198.286 41.656 198.742 41.768 199.27 41.768C199.83 41.768 200.294 41.656 200.662 41.432C201.046 41.208 201.35 40.912 201.574 40.544C201.798 40.16 201.958 39.728 202.054 39.248C202.15 38.768 202.198 38.272 202.198 37.76ZM202.246 42.416H202.198C201.798 43.088 201.27 43.576 200.614 43.88C199.974 44.168 199.246 44.312 198.43 44.312C197.502 44.312 196.686 44.136 195.982 43.784C195.278 43.416 194.694 42.928 194.23 42.32C193.782 41.696 193.438 40.984 193.198 40.184C192.974 39.384 192.862 38.552 192.862 37.688C192.862 36.856 192.974 36.056 193.198 35.288C193.438 34.504 193.782 33.816 194.23 33.224C194.694 32.632 195.27 32.16 195.958 31.808C196.646 31.44 197.446 31.256 198.358 31.256C199.094 31.256 199.79 31.416 200.446 31.736C201.118 32.04 201.646 32.496 202.03 33.104H202.078V26.864H205.486V44H202.246V42.416ZM210.486 37.808C210.486 38.304 210.534 38.792 210.63 39.272C210.726 39.736 210.886 40.16 211.11 40.544C211.35 40.912 211.662 41.208 212.046 41.432C212.43 41.656 212.91 41.768 213.486 41.768C214.062 41.768 214.542 41.656 214.926 41.432C215.326 41.208 215.638 40.912 215.862 40.544C216.102 40.16 216.27 39.736 216.366 39.272C216.462 38.792 216.51 38.304 216.51 37.808C216.51 37.312 216.462 36.824 216.366 36.344C216.27 35.864 216.102 35.44 215.862 35.072C215.638 34.704 215.326 34.408 214.926 34.184C214.542 33.944 214.062 33.824 213.486 33.824C212.91 33.824 212.43 33.944 212.046 34.184C211.662 34.408 211.35 34.704 211.11 35.072C210.886 35.44 210.726 35.864 210.63 36.344C210.534 36.824 210.486 37.312 210.486 37.808ZM207.078 37.808C207.078 36.816 207.23 35.92 207.534 35.12C207.838 34.304 208.27 33.616 208.83 33.056C209.39 32.48 210.062 32.04 210.846 31.736C211.63 31.416 212.51 31.256 213.486 31.256C214.462 31.256 215.342 31.416 216.126 31.736C216.926 32.04 217.606 32.48 218.166 33.056C218.726 33.616 219.158 34.304 219.462 35.12C219.766 35.92 219.918 36.816 219.918 37.808C219.918 38.8 219.766 39.696 219.462 40.496C219.158 41.296 218.726 41.984 218.166 42.56C217.606 43.12 216.926 43.552 216.126 43.856C215.342 44.16 214.462 44.312 213.486 44.312C212.51 44.312 211.63 44.16 210.846 43.856C210.062 43.552 209.39 43.12 208.83 42.56C208.27 41.984 207.838 41.296 207.534 40.496C207.23 39.696 207.078 38.8 207.078 37.808ZM224.557 37.808C224.557 38.304 224.605 38.792 224.701 39.272C224.797 39.736 224.957 40.16 225.181 40.544C225.421 40.912 225.733 41.208 226.117 41.432C226.501 41.656 226.981 41.768 227.557 41.768C228.133 41.768 228.613 41.656 228.997 41.432C229.397 41.208 229.709 40.912 229.933 40.544C230.173 40.16 230.341 39.736 230.437 39.272C230.533 38.792 230.581 38.304 230.581 37.808C230.581 37.312 230.533 36.824 230.437 36.344C230.341 35.864 230.173 35.44 229.933 35.072C229.709 34.704 229.397 34.408 228.997 34.184C228.613 33.944 228.133 33.824 227.557 33.824C226.981 33.824 226.501 33.944 226.117 34.184C225.733 34.408 225.421 34.704 225.181 35.072C224.957 35.44 224.797 35.864 224.701 36.344C224.605 36.824 224.557 37.312 224.557 37.808ZM221.149 37.808C221.149 36.816 221.301 35.92 221.605 35.12C221.909 34.304 222.341 33.616 222.901 33.056C223.461 32.48 224.133 32.04 224.917 31.736C225.701 31.416 226.581 31.256 227.557 31.256C228.533 31.256 229.413 31.416 230.197 31.736C230.997 32.04 231.677 32.48 232.237 33.056C232.797 33.616 233.229 34.304 233.533 35.12C233.837 35.92 233.989 36.816 233.989 37.808C233.989 38.8 233.837 39.696 233.533 40.496C233.229 41.296 232.797 41.984 232.237 42.56C231.677 43.12 230.997 43.552 230.197 43.856C229.413 44.16 228.533 44.312 227.557 44.312C226.581 44.312 225.701 44.16 224.917 43.856C224.133 43.552 223.461 43.12 222.901 42.56C222.341 41.984 221.909 41.296 221.605 40.496C221.301 39.696 221.149 38.8 221.149 37.808ZM238.629 37.808C238.629 38.304 238.677 38.792 238.773 39.272C238.869 39.736 239.029 40.16 239.253 40.544C239.493 40.912 239.805 41.208 240.189 41.432C240.573 41.656 241.053 41.768 241.629 41.768C242.205 41.768 242.685 41.656 243.069 41.432C243.469 41.208 243.781 40.912 244.005 40.544C244.245 40.16 244.413 39.736 244.509 39.272C244.605 38.792 244.653 38.304 244.653 37.808C244.653 37.312 244.605 36.824 244.509 36.344C244.413 35.864 244.245 35.44 244.005 35.072C243.781 34.704 243.469 34.408 243.069 34.184C242.685 33.944 242.205 33.824 241.629 33.824C241.053 33.824 240.573 33.944 240.189 34.184C239.805 34.408 239.493 34.704 239.253 35.072C239.029 35.44 238.869 35.864 238.773 36.344C238.677 36.824 238.629 37.312 238.629 37.808ZM235.221 37.808C235.221 36.816 235.373 35.92 235.677 35.12C235.981 34.304 236.413 33.616 236.973 33.056C237.533 32.48 238.205 32.04 238.989 31.736C239.773 31.416 240.653 31.256 241.629 31.256C242.605 31.256 243.485 31.416 244.269 31.736C245.069 32.04 245.749 32.48 246.309 33.056C246.869 33.616 247.301 34.304 247.605 35.12C247.909 35.92 248.061 36.816 248.061 37.808C248.061 38.8 247.909 39.696 247.605 40.496C247.301 41.296 246.869 41.984 246.309 42.56C245.749 43.12 245.069 43.552 244.269 43.856C243.485 44.16 242.605 44.312 241.629 44.312C240.653 44.312 239.773 44.16 238.989 43.856C238.205 43.552 237.533 43.12 236.973 42.56C236.413 41.984 235.981 41.296 235.677 40.496C235.373 39.696 235.221 38.8 235.221 37.808ZM249.677 31.592H252.917V33.896H252.965C253.125 33.512 253.341 33.16 253.613 32.84C253.885 32.504 254.197 32.224 254.549 32C254.901 31.76 255.277 31.576 255.677 31.448C256.077 31.32 256.493 31.256 256.925 31.256C257.149 31.256 257.397 31.296 257.669 31.376V34.544C257.509 34.512 257.317 34.488 257.093 34.472C256.869 34.44 256.653 34.424 256.445 34.424C255.821 34.424 255.293 34.528 254.861 34.736C254.429 34.944 254.077 35.232 253.805 35.6C253.549 35.952 253.365 36.368 253.253 36.848C253.141 37.328 253.085 37.848 253.085 38.408V44H249.677V31.592ZM261.045 39.968C261.045 40.336 261.117 40.656 261.261 40.928C261.421 41.184 261.621 41.4 261.861 41.576C262.101 41.736 262.373 41.856 262.677 41.936C262.997 42.016 263.325 42.056 263.661 42.056C263.901 42.056 264.149 42.032 264.405 41.984C264.677 41.92 264.917 41.832 265.125 41.72C265.349 41.592 265.533 41.432 265.677 41.24C265.821 41.032 265.893 40.776 265.893 40.472C265.893 39.96 265.549 39.576 264.861 39.32C264.189 39.064 263.245 38.808 262.029 38.552C261.533 38.44 261.045 38.312 260.565 38.168C260.101 38.008 259.685 37.808 259.317 37.568C258.949 37.312 258.653 37 258.429 36.632C258.205 36.248 258.093 35.784 258.093 35.24C258.093 34.44 258.245 33.784 258.549 33.272C258.869 32.76 259.285 32.36 259.797 32.072C260.309 31.768 260.885 31.56 261.525 31.448C262.165 31.32 262.821 31.256 263.493 31.256C264.165 31.256 264.813 31.32 265.437 31.448C266.077 31.576 266.645 31.792 267.141 32.096C267.637 32.4 268.045 32.808 268.365 33.32C268.701 33.816 268.901 34.448 268.965 35.216H265.725C265.677 34.56 265.429 34.12 264.981 33.896C264.533 33.656 264.005 33.536 263.397 33.536C263.205 33.536 262.997 33.552 262.773 33.584C262.549 33.6 262.341 33.648 262.149 33.728C261.973 33.808 261.821 33.928 261.693 34.088C261.565 34.232 261.501 34.432 261.501 34.688C261.501 34.992 261.613 35.24 261.837 35.432C262.061 35.624 262.349 35.784 262.701 35.912C263.069 36.024 263.485 36.128 263.949 36.224C264.413 36.32 264.885 36.424 265.365 36.536C265.861 36.648 266.341 36.784 266.805 36.944C267.285 37.104 267.709 37.32 268.077 37.592C268.445 37.848 268.741 38.176 268.965 38.576C269.189 38.96 269.301 39.44 269.301 40.016C269.301 40.832 269.133 41.52 268.797 42.08C268.477 42.624 268.053 43.064 267.525 43.4C266.997 43.736 266.389 43.968 265.701 44.096C265.029 44.24 264.341 44.312 263.637 44.312C262.917 44.312 262.213 44.24 261.525 44.096C260.837 43.952 260.221 43.712 259.677 43.376C259.149 43.04 258.709 42.6 258.357 42.056C258.021 41.496 257.837 40.8 257.805 39.968H261.045Z" fill="#F2F2F2"/>
<defs>
<filter id="filter0_d_307_1362" x="0.1" y="0.1" width="311.8" height="79.8" filterUnits="userSpaceOnUse" color-interpolation-filters="sRGB">
<feFlood flood-opacity="0" result="BackgroundImageFix"/>
<feColorMatrix in="SourceAlpha" type="matrix" values="0 0 0 0 0 0 0 0 0 0 0 0 0 0 0 0 0 0 127 0" result="hardAlpha"/>
<feOffset dy="4"/>
<feGaussianBlur stdDeviation="5.95"/>
<feComposite in2="hardAlpha" operator="out"/>
<feColorMatrix type="matrix" values="0 0 0 0 0 0 0 0 0 0 0 0 0 0 0 0 0 0 0.23 0"/>
<feBlend mode="normal" in2="BackgroundImageFix" result="effect1_dropShadow_307_1362"/>
<feBlend mode="normal" in="SourceGraphic" in2="effect1_dropShadow_307_1362" result="shape"/>
</filter>
</defs>
</svg>
