<svg width="30" height="30" viewBox="0 0 30 30" fill="none" xmlns="http://www.w3.org/2000/svg">
<path fill-rule="evenodd" clip-rule="evenodd" d="M15.5536 0.435654C15.1565 -0.145218 14.2995 -0.145218 13.9025 0.435654L11.0986 4.5372C10.8747 4.86475 10.4783 5.02893 10.0884 4.95566L5.20549 4.03806C4.51402 3.90808 3.90807 4.51401 4.03801 5.20554L4.95567 10.0884C5.02892 10.4783 4.86473 10.8747 4.53722 11.0986L0.435654 13.9025C-0.145218 14.2996 -0.145218 15.1565 0.435654 15.5536L4.53722 18.3574C4.86473 18.5813 5.02892 18.9777 4.95567 19.3676L4.03801 24.2505C3.90807 24.942 4.51402 25.548 5.20549 25.418L10.0884 24.5004C10.4783 24.4271 10.8747 24.5913 11.0986 24.9189L13.9025 29.0204C14.2995 29.6013 15.1565 29.6013 15.5536 29.0204L18.3574 24.9189C18.5813 24.5913 18.9777 24.4271 19.3677 24.5004L24.2505 25.418C24.942 25.548 25.548 24.942 25.418 24.2505L24.5004 19.3676C24.4271 18.9777 24.5913 18.5813 24.9188 18.3574L29.0204 15.5536C29.6012 15.1565 29.6012 14.2996 29.0204 13.9025L24.9188 11.0986C24.5913 10.8747 24.4271 10.4783 24.5004 10.0884L25.418 5.20554C25.548 4.51401 24.942 3.90808 24.2505 4.03806L19.3677 4.95566C18.9777 5.02893 18.5813 4.86475 18.3574 4.5372L15.5536 0.435654ZM13.6128 11.4077V20.2944C13.6128 20.8153 13.7332 21.2091 13.9741 21.4761C14.215 21.743 14.534 21.8765 14.9311 21.8765C15.823 21.8765 16.269 21.2222 16.269 19.9136V8.73193C16.269 8.26318 16.1648 7.89536 15.9565 7.62842C15.7482 7.36148 15.4715 7.22803 15.1264 7.22803C14.8205 7.22803 14.6121 7.28662 14.5014 7.40381C14.3908 7.521 14.1531 7.8335 13.7886 8.34131C13.424 8.84912 13.0041 9.30811 12.5288 9.71826C12.06 10.1284 11.4318 10.519 10.644 10.8901C10.1167 11.1375 9.74883 11.3394 9.54051 11.4956C9.3322 11.6519 9.22801 11.896 9.22801 12.228C9.22801 12.5145 9.3322 12.7684 9.54051 12.9897C9.75536 13.2046 9.9995 13.312 10.2729 13.312C10.8459 13.312 11.9592 12.6772 13.6128 11.4077Z" fill="#FC030B"/>
</svg>
