<svg width="30" height="29" viewBox="0 0 30 29" fill="none" xmlns="http://www.w3.org/2000/svg">
<path fill-rule="evenodd" clip-rule="evenodd" d="M18.3235 0.85408C18.1842 -0.0855052 16.9364 -0.31988 16.4657 0.505134L14.3634 4.1898C14.0345 4.76634 13.2455 4.86829 12.7808 4.39429L9.81103 1.36494C9.14609 0.686656 7.99884 1.23048 8.10296 2.17461L8.56798 6.39125C8.64074 7.05103 8.0623 7.5973 7.40776 7.48695L3.22458 6.78173C2.28795 6.62383 1.67946 7.73813 2.31863 8.44075L5.17332 11.5788C5.61999 12.0698 5.47312 12.8517 4.87873 13.1472L1.07995 15.0354C0.22938 15.4582 0.392068 16.7174 1.32216 16.9101L5.47612 17.7709C6.12609 17.9055 6.46688 18.6245 6.15967 19.2129L4.1963 22.9734C3.75669 23.8154 4.62841 24.7384 5.49416 24.3477L9.36073 22.6024C9.96573 22.3293 10.664 22.7106 10.7613 23.3672L11.3833 27.5636C11.5226 28.5032 12.7704 28.7376 13.2411 27.9125L15.3433 24.2279C15.6723 23.6513 16.4613 23.5494 16.926 24.0234L19.8958 27.0527C20.5607 27.731 21.7079 27.1872 21.6038 26.2431L21.1388 22.0264C21.066 21.3666 21.6445 20.8204 22.299 20.9307L26.4822 21.6359C27.4188 21.7938 28.0273 20.6795 27.3882 19.9769L24.5335 16.8389C24.0868 16.3479 24.2337 15.566 24.8281 15.2705L28.6268 13.3822C29.4774 12.9595 29.3147 11.7003 28.3846 11.5076L24.2307 10.6468C23.5807 10.5121 23.2399 9.79321 23.5471 9.2048L25.5105 5.44428C25.9501 4.60229 25.0784 3.67924 24.2126 4.07001L20.3461 5.81528C19.7411 6.08837 19.0428 5.70705 18.9455 5.05045L18.3235 0.85408ZM9.07673 9.85923L12.8365 10.5331C12.9407 9.82342 13.1392 9.32863 13.4322 9.04868C13.7252 8.76222 14.106 8.61899 14.5748 8.61899C15.0305 8.61899 15.3886 8.7492 15.649 9.00962C15.9094 9.27004 16.0396 9.61834 16.0396 10.0545C16.0396 10.5103 15.8638 10.9042 15.5123 11.2362C15.1672 11.5682 14.7343 11.7342 14.2134 11.7342C14.0897 11.7342 13.9172 11.718 13.6959 11.6854L13.4908 14.5272C14.0377 14.3709 14.4674 14.2928 14.7799 14.2928C15.3658 14.2928 15.828 14.4751 16.1666 14.8397C16.5116 15.2043 16.6841 15.7186 16.6841 16.3827C16.6841 17.0337 16.5051 17.5545 16.147 17.9452C15.7955 18.3358 15.3528 18.5311 14.8189 18.5311C14.3111 18.5311 13.8912 18.3781 13.5591 18.0721C13.2336 17.7596 12.9927 17.203 12.8365 16.4022L8.86188 16.9295C9.1223 17.8215 9.49339 18.5637 9.97516 19.1561C10.4634 19.742 11.0819 20.188 11.8306 20.494C12.5858 20.8 13.6145 20.953 14.9166 20.953C16.2512 20.953 17.3287 20.7479 18.149 20.3377C18.9693 19.9211 19.5976 19.3319 20.0338 18.5702C20.47 17.8019 20.6881 17.0012 20.6881 16.1678C20.6881 15.5038 20.5546 14.9341 20.2877 14.4588C20.0272 13.9771 19.6594 13.5897 19.1841 13.2967C18.8912 13.1144 18.468 12.9549 17.9146 12.8182C18.5982 12.4406 19.1093 12.0012 19.4478 11.4999C19.7864 10.9986 19.9556 10.4387 19.9556 9.82017C19.9556 8.76548 19.539 7.88983 18.7056 7.19321C17.8723 6.4966 16.5214 6.14829 14.6529 6.14829C13.0253 6.14829 11.7655 6.4673 10.8736 7.10532C9.98818 7.74334 9.38923 8.66131 9.07673 9.85923Z" fill="#F78008"/>
</svg>
