<svg width="30" height="29" viewBox="0 0 30 29" fill="none" xmlns="http://www.w3.org/2000/svg">
<path fill-rule="evenodd" clip-rule="evenodd" d="M18.5611 0.85408C18.4218 -0.0855052 17.174 -0.31988 16.7033 0.505134L14.6011 4.1898C14.2721 4.76634 13.4831 4.86829 13.0184 4.39429L10.0486 1.36494C9.3837 0.686656 8.23645 1.23048 8.34057 2.17461L8.80559 6.39125C8.87835 7.05103 8.29991 7.5973 7.64537 7.48695L3.46219 6.78173C2.52556 6.62383 1.91707 7.73813 2.55624 8.44075L5.41093 11.5788C5.8576 12.0698 5.71073 12.8517 5.11634 13.1472L1.31756 15.0354C0.46699 15.4582 0.629677 16.7174 1.55977 16.9101L5.71373 17.7709C6.3637 17.9055 6.70449 18.6245 6.39728 19.2129L4.43391 22.9734C3.9943 23.8154 4.86602 24.7384 5.73177 24.3477L9.59834 22.6024C10.2033 22.3293 10.9016 22.7106 10.9989 23.3672L11.6209 27.5636C11.7602 28.5032 13.008 28.7376 13.4787 27.9125L15.5809 24.2279C15.9099 23.6513 16.6989 23.5494 17.1636 24.0234L20.1334 27.0527C20.7983 27.731 21.9456 27.1872 21.8414 26.2431L21.3764 22.0264C21.3037 21.3666 21.8821 20.8204 22.5366 20.9307L26.7198 21.6359C27.6564 21.7938 28.2649 20.6795 27.6258 19.9769L24.7711 16.8389C24.3244 16.3479 24.4713 15.566 25.0657 15.2705L28.8645 13.3822C29.715 12.9595 29.5523 11.7003 28.6222 11.5076L24.4683 10.6468C23.8183 10.5121 23.4775 9.79321 23.7847 9.2048L25.7481 5.44428C26.1877 4.60229 25.316 3.67924 24.4502 4.07001L20.5837 5.81528C19.9787 6.08837 19.2804 5.70705 19.1831 5.05045L18.5611 0.85408ZM8.68607 20.7088H20.6197V17.4667H14.4087C14.7733 17.1086 15.0891 16.8189 15.356 16.5975C15.6294 16.3762 16.1665 15.9888 16.9673 15.4354C18.315 14.4849 19.2427 13.6125 19.7505 12.8182C20.2648 12.0239 20.522 11.1906 20.522 10.3182C20.522 9.4979 20.2974 8.75897 19.8482 8.10142C19.4055 7.43735 18.7935 6.94582 18.0122 6.62681C17.2375 6.3078 16.1503 6.14829 14.7505 6.14829C13.4094 6.14829 12.3579 6.31756 11.5962 6.6561C10.841 6.98813 10.2551 7.46991 9.83841 8.10142C9.42175 8.72642 9.13529 9.59881 8.97904 10.7186L12.9634 11.0409C13.0741 10.2336 13.2889 9.67043 13.6079 9.35142C13.9335 9.0324 14.3501 8.8729 14.8579 8.8729C15.3462 8.8729 15.7499 9.02915 16.0689 9.34165C16.3944 9.64764 16.5572 10.0187 16.5572 10.4549C16.5572 10.8586 16.3944 11.285 16.0689 11.7342C15.7434 12.1834 14.9979 12.841 13.8326 13.7069C11.925 15.1196 10.6229 16.3469 9.9263 17.3885C9.2362 18.4237 8.82279 19.5305 8.68607 20.7088Z" fill="#F88EBA"/>
</svg>
